<?xml version="1.0" standalone="no"?>
<!DOCTYPE svg PUBLIC "-//W3C//DTD SVG 20010904//EN"
 "http://www.w3.org/TR/2001/REC-SVG-20010904/DTD/svg10.dtd">
<svg version="1.0" xmlns="http://www.w3.org/2000/svg"
 width="512.000000pt" height="512.000000pt" viewBox="0 0 512.000000 512.000000"
 preserveAspectRatio="xMidYMid meet">
<metadata>
Created by potrace 1.16, written by Peter Selinger 2001-2019
</metadata>
<g transform="translate(0.000000,512.000000) scale(0.100000,-0.100000)"
fill="#000000" stroke="none">
<path d="M2330 4434 c-785 -96 -1443 -671 -1634 -1429 -46 -185 -59 -308 -53
-535 5 -238 23 -347 92 -555 100 -305 239 -529 472 -761 308 -307 689 -491
1126 -544 158 -20 453 -8 607 25 376 79 704 252 962 509 320 318 500 674 564
1116 20 141 15 457 -10 590 -37 197 -86 350 -166 515 -256 531 -769 928 -1355
1046 -91 18 -150 22 -340 24 -126 2 -246 1 -265 -1z m404 -109 c43 -3 133 -16
201 -30 433 -88 841 -355 1108 -726 124 -173 248 -459 291 -669 44 -216 47
-530 7 -724 -76 -370 -242 -679 -505 -941 -265 -264 -570 -424 -961 -502 -71
-14 -138 -18 -320 -18 -203 0 -243 3 -340 24 -754 160 -1300 715 -1442 1464
-13 70 -18 146 -18 322 0 201 3 244 23 343 49 243 164 513 299 702 87 122 311
346 433 433 108 77 331 191 464 237 122 42 318 81 456 89 112 7 142 7 304 -4z"/>
<path d="M2423 4073 c4 -75 7 -181 7 -235 0 -97 0 -99 23 -96 21 3 22 7 22
108 l1 105 55 3 56 3 7 -62 c3 -34 6 -82 6 -105 0 -41 2 -44 26 -44 22 0 25 3
20 23 -3 12 -6 115 -6 230 l0 207 -25 0 -25 0 0 -105 0 -105 -60 0 -60 0 0
105 0 105 -27 0 -26 0 6 -137z"/>
<path d="M2840 4176 c0 -2 -20 -102 -45 -222 -36 -171 -43 -219 -33 -226 7 -4
18 -6 23 -5 11 4 105 437 98 450 -4 7 -43 10 -43 3z"/>
<path d="M2078 4135 c-57 -31 -58 -133 -1 -187 16 -15 55 -38 88 -53 75 -33
93 -49 101 -92 16 -84 -91 -101 -112 -18 -4 16 -11 21 -25 18 -23 -6 -24 -24
-4 -63 18 -35 43 -50 85 -50 74 0 120 59 100 129 -16 57 -37 78 -113 114 -82
39 -117 75 -117 118 0 39 41 66 75 51 13 -6 26 -20 30 -31 3 -12 15 -21 26
-21 29 0 24 37 -10 71 -33 33 -78 38 -123 14z"/>
<path d="M2998 3922 c-109 -246 -103 -228 -80 -234 17 -5 30 16 93 159 40 91
75 161 77 155 2 -6 -6 -91 -18 -189 -21 -169 -21 -178 -4 -190 10 -7 20 -13
24 -13 6 0 190 405 190 419 0 5 -7 12 -15 15 -12 4 -24 -14 -51 -72 -83 -183
-97 -212 -102 -207 -2 2 3 77 13 165 10 93 14 165 9 170 -5 4 -18 10 -29 14
-18 5 -30 -17 -107 -192z"/>
<path d="M1807 4008 c-15 -12 -6 -32 96 -210 61 -109 115 -197 118 -198 3 0
12 6 21 13 15 11 4 33 -93 202 -61 105 -113 193 -118 198 -4 4 -15 1 -24 -5z"/>
<path d="M1564 3838 c-32 -28 -59 -57 -59 -64 0 -13 285 -344 296 -344 4 0 12
7 19 15 11 13 3 26 -49 84 -33 38 -61 73 -61 77 0 5 16 24 35 44 32 33 34 38
20 50 -14 11 -21 8 -50 -20 -18 -18 -38 -31 -43 -29 -6 2 -34 31 -63 64 l-52
59 52 46 c41 36 49 48 39 58 -18 18 -19 17 -84 -40z"/>
<path d="M3439 3860 c-16 -9 -157 -170 -207 -234 -14 -18 -22 -43 -22 -66 0
-51 53 -100 107 -100 33 0 45 8 100 68 35 37 63 72 63 79 0 6 -15 23 -32 37
-30 23 -34 24 -48 10 -13 -14 -13 -17 3 -28 9 -7 17 -17 17 -22 0 -17 -92
-104 -109 -104 -28 0 -64 45 -56 70 9 28 177 224 211 246 24 16 27 16 52 -3
36 -27 37 -42 8 -85 -21 -31 -22 -39 -10 -49 17 -14 38 1 60 42 23 45 18 84
-17 118 -23 24 -39 31 -67 31 -20 0 -44 -5 -53 -10z"/>
<path d="M2540 3435 c0 -3 20 -14 45 -25 45 -19 135 -94 135 -112 0 -5 -28 13
-62 40 -80 62 -100 73 -119 61 -7 -5 -29 -9 -47 -9 -18 0 -44 -7 -57 -16 -16
-10 -34 -14 -51 -10 -17 5 -23 3 -19 -4 3 -6 -3 -10 -14 -10 -12 0 -20 -6 -18
-12 1 -8 -6 -12 -16 -10 -10 2 -29 -8 -41 -21 -12 -13 -29 -26 -37 -29 -8 -3
3 -10 26 -17 22 -6 47 -15 55 -20 27 -18 3 -21 -40 -6 -52 18 -70 19 -70 3 0
-7 -18 -22 -41 -32 -48 -23 -55 -32 -39 -51 23 -28 -10 -54 -182 -138 -189
-92 -267 -146 -298 -207 -32 -62 -24 -66 30 -16 76 71 80 55 6 -24 -65 -69
-66 -71 -66 -125 0 -30 4 -55 9 -55 4 0 21 18 36 40 33 48 104 114 113 106 3
-4 -19 -32 -50 -64 -62 -63 -78 -89 -78 -124 1 -20 3 -19 19 12 19 35 71 91
71 76 0 -5 -18 -35 -40 -68 -42 -63 -54 -101 -19 -58 l21 25 -7 -25 c-16 -59
-16 -81 0 -124 26 -67 17 -133 -27 -199 -80 -120 -88 -150 -67 -262 11 -59 49
-148 69 -160 17 -11 36 11 49 57 22 76 35 88 92 88 28 0 58 -4 68 -9 29 -16
96 -84 133 -136 48 -67 82 -98 105 -93 27 5 45 72 41 148 -5 88 -39 156 -129
255 -83 91 -108 140 -109 212 0 44 4 56 27 77 l27 26 16 -41 16 -41 27 32 c34
40 36 61 2 23 l-24 -28 -1 33 c0 25 -5 35 -20 39 -24 6 -25 13 -5 39 8 10 15
28 15 38 0 11 10 31 23 44 l22 25 -23 -12 c-33 -17 -89 -99 -104 -151 -33
-117 -3 -212 103 -326 79 -85 129 -187 129 -264 0 -67 -14 -97 -24 -50 -3 18
-6 47 -6 64 0 37 -39 125 -65 146 -14 11 -11 2 9 -32 26 -45 51 -148 35 -148
-4 0 -24 33 -44 73 -20 39 -46 81 -57 92 -11 12 -6 -2 13 -33 26 -42 30 -56
22 -74 -9 -20 -14 -15 -53 60 -50 96 -64 104 -21 12 17 -35 27 -68 24 -73 -10
-17 -40 30 -63 98 -12 36 -26 67 -30 70 -5 3 -3 -10 5 -29 8 -20 15 -43 15
-51 0 -28 -19 -6 -31 35 -7 22 -16 40 -20 40 -4 0 -2 -15 6 -34 15 -34 12 -46
-12 -46 -7 0 -13 9 -13 20 0 11 -4 20 -10 20 -5 0 -10 -7 -10 -15 0 -8 -12
-17 -27 -21 -57 -12 -72 -23 -82 -61 -6 -21 -16 -45 -21 -53 -9 -13 -12 -12
-25 5 -33 43 -40 93 -22 161 19 75 54 130 101 162 29 20 35 31 40 70 9 78 10
117 4 128 -4 6 -1 22 6 36 10 19 11 29 3 37 -8 8 -6 11 9 12 10 0 13 3 7 6 -7
2 -13 16 -13 30 0 23 3 24 33 18 l32 -8 -25 21 c-29 24 -22 39 11 22 l22 -13
-21 28 c-12 15 -19 31 -16 36 6 11 44 -8 44 -21 0 -6 5 -10 12 -10 7 0 6 6 -4
18 -18 21 -32 72 -19 72 5 0 11 10 14 21 4 14 11 20 21 16 12 -5 15 0 13 16
-1 16 3 21 16 19 15 -3 16 2 11 24 -6 23 -4 26 10 21 12 -5 16 -1 16 14 0 16
5 20 20 16 16 -4 20 0 20 20 0 22 3 24 24 19 21 -5 23 -3 18 16 -4 18 -2 20
21 14 25 -6 27 -4 27 24 0 16 5 30 10 30 6 0 10 -4 10 -9 0 -5 7 -12 16 -15
13 -5 14 -1 9 24 -6 29 6 42 20 20 12 -19 22 -10 17 16 -4 24 -3 25 16 15 29
-15 34 -14 27 8 -6 21 10 38 20 21 11 -18 27 -11 22 10 -6 22 12 27 30 9 9 -9
10 -7 6 10 -6 25 12 28 26 4 9 -16 10 -16 11 5 0 13 6 22 15 22 8 0 15 -7 15
-15 0 -22 17 -18 23 5 8 31 25 23 33 -15 7 -42 22 -56 17 -17 -4 32 10 58 26
48 6 -4 11 -18 11 -30 0 -13 7 -37 15 -52 l15 -29 0 28 c0 15 -4 27 -10 27
-14 0 -12 57 2 66 6 4 14 2 16 -5 3 -9 10 -7 25 6 20 17 20 17 14 0 -14 -37
-17 -62 -10 -73 5 -7 36 -23 70 -37 34 -14 83 -40 110 -58 58 -40 143 -123
143 -141 0 -9 -3 -9 -12 0 -18 18 -33 15 -17 -4 10 -12 10 -17 1 -23 -9 -5 -4
-11 14 -20 22 -10 29 -9 35 1 4 7 9 10 11 8 2 -3 17 -25 32 -50 35 -55 64 -88
91 -103 11 -6 -3 15 -32 46 -53 59 -77 110 -71 149 4 19 8 15 26 -24 26 -59
144 -178 176 -178 27 0 95 -96 103 -146 8 -48 -9 -44 -81 20 -34 29 -84 65
-112 79 -29 14 -66 44 -83 65 -38 49 -84 68 -199 83 -89 12 -89 12 -147 -17
-32 -16 -76 -46 -97 -66 -41 -39 -96 -54 -84 -23 3 8 0 14 -6 12 -21 -4 -17
38 5 56 l22 18 -22 -11 c-20 -9 -23 -8 -23 8 0 11 14 25 36 36 42 20 41 32 -2
15 -16 -6 -71 -13 -123 -16 -84 -5 -95 -4 -107 12 -13 18 -14 17 -14 -7 0 -19
-8 -29 -29 -38 -16 -6 -36 -19 -44 -28 -19 -24 -44 -98 -51 -152 l-5 -45 15
50 c32 106 44 131 74 148 30 18 219 59 233 50 4 -2 3 -13 -3 -23 -23 -44 0
-120 38 -120 9 0 33 -12 53 -26 36 -24 38 -25 68 -10 17 9 41 30 53 47 31 42
109 98 147 105 18 4 60 -1 101 -12 56 -14 76 -25 95 -50 13 -17 68 -61 122
-96 54 -36 109 -77 122 -92 14 -14 33 -26 43 -26 24 0 25 56 1 105 -20 42 -19
43 68 91 35 19 53 32 39 28 -14 -3 -42 -16 -63 -27 -42 -23 -60 -16 -50 21 9
34 93 72 93 41 0 -6 8 -8 18 -6 165 45 199 67 103 67 -53 0 -128 -23 -208 -64
-31 -15 -69 -26 -93 -26 -40 0 -41 1 -38 32 2 23 11 36 28 45 18 9 20 13 7 13
-9 0 -26 -6 -37 -12 -28 -18 -50 7 -61 67 -16 85 31 148 109 148 45 0 82 -18
82 -38 0 -18 -23 -30 -75 -40 l-40 -8 45 -9 c25 -4 79 -8 121 -8 51 0 81 -5
95 -15 19 -15 18 -16 -10 -41 l-30 -26 32 6 c18 3 46 9 62 12 l31 6 -18 28
c-56 87 -82 121 -131 173 -53 55 -63 79 -25 59 21 -12 107 -102 140 -147 12
-16 23 -27 23 -23 0 4 -27 40 -59 81 -68 86 -160 168 -295 263 -74 52 -96 73
-101 96 -11 46 -103 178 -126 178 -4 0 -9 -9 -12 -20 -7 -28 -43 -25 -84 6
-32 24 -37 25 -77 14 -38 -10 -48 -9 -84 9 -41 21 -62 26 -62 16z m64 -400
c-4 -8 -1 -15 5 -15 7 0 14 7 17 15 4 8 10 15 15 15 5 0 9 -7 9 -15 0 -8 4
-15 9 -15 5 0 11 7 15 15 6 18 36 20 36 3 0 -9 3 -9 12 0 7 7 20 12 31 12 14
0 17 -5 13 -22 -3 -13 -3 -17 0 -10 9 19 34 15 27 -5 -6 -14 -2 -13 21 5 35
27 47 21 40 -21 -4 -28 -3 -29 5 -9 12 26 31 29 31 5 0 -13 3 -14 12 -5 23 23
38 15 27 -15 -5 -15 -8 -37 -5 -49 6 -22 -34 -117 -54 -129 -17 -11 -20 15 -4
40 10 15 12 25 5 25 -6 0 -11 8 -11 17 0 13 -3 14 -12 5 -16 -16 -28 -15 -28
3 0 16 -12 20 -23 8 -4 -3 -2 -12 5 -20 17 -21 4 -25 -30 -7 -18 8 -32 22 -32
30 0 8 -7 14 -15 14 -9 0 -12 6 -8 16 4 12 0 14 -23 8 l-29 -7 19 22 c22 25
11 28 -16 4 -23 -20 -36 -9 -20 17 15 24 5 26 -20 3 -17 -15 -18 -15 -18 2 0
18 -1 18 -14 -1 -14 -17 -16 -18 -31 -3 -15 14 -15 18 2 47 18 32 47 45 37 17z
m456 -93 c-24 -4 -40 -18 -40 -36 0 -4 9 -6 20 -3 11 3 20 1 20 -4 0 -5 12 -9
28 -10 25 0 26 -1 7 -12 -11 -7 -37 -28 -57 -48 -42 -41 -46 -63 -23 -128 12
-35 12 -41 0 -41 -18 0 -51 43 -66 87 -6 19 -9 60 -7 91 4 48 9 60 38 83 34
29 64 39 90 30 10 -4 7 -7 -10 -9z"/>
<path d="M4047 2690 c-18 -51 -52 -83 -100 -95 -31 -8 -46 -25 -22 -25 9 0 34
-9 55 -20 40 -20 61 -50 75 -105 7 -30 7 -30 27 23 21 55 43 76 106 97 31 11
34 14 17 20 -84 28 -97 40 -123 108 l-18 46 -17 -49z"/>
<path d="M1041 2665 c-16 -57 -39 -82 -96 -104 l-50 -19 28 -11 c16 -6 32 -11
37 -11 21 0 69 -61 81 -101 l12 -44 11 36 c22 70 50 98 131 124 16 5 11 10
-29 26 -62 23 -72 33 -95 95 l-19 49 -11 -40z"/>
<path d="M2777 1303 c-32 -9 -60 -21 -62 -27 -3 -6 24 -105 59 -221 46 -155
67 -211 79 -213 28 -6 28 19 3 101 l-24 78 54 24 c67 30 81 57 65 129 -18 77
-41 117 -77 132 -19 8 -35 14 -36 13 -2 -1 -29 -8 -61 -16z m97 -55 c8 -12 21
-46 27 -75 11 -50 11 -56 -7 -74 -11 -11 -33 -21 -49 -22 -28 -2 -30 1 -51 73
-28 93 -29 107 -6 113 42 11 71 6 86 -15z"/>
<path d="M2170 1105 c-55 -114 -98 -211 -94 -216 12 -20 32 -7 49 31 20 44 28
46 95 26 l45 -13 0 -49 c0 -42 3 -49 20 -49 19 0 21 13 39 228 10 125 17 229
14 232 -2 3 -19 8 -36 11 l-32 7 -100 -208z m111 -10 c-5 -59 -12 -109 -14
-112 -6 -6 -69 6 -85 16 -9 5 4 41 45 127 65 134 69 132 54 -31z"/>
<path d="M2470 1040 l0 -230 25 0 c25 0 25 1 25 90 l0 90 30 0 c50 0 95 24
109 59 8 19 12 57 9 100 -3 57 -8 75 -28 96 -21 22 -31 25 -97 25 l-73 0 0
-230z m140 171 c5 -11 10 -49 10 -84 0 -73 -8 -85 -64 -94 -35 -6 -36 -5 -36
28 0 19 -3 64 -7 102 l-6 67 46 0 c36 0 49 -5 57 -19z"/>
</g>
</svg>
